# xmcd
#
# Track frame offsets:
#	150
#	12323
#	23653
#	34683
#	47203
#	61488
#	72458
#	85428
#	96105
#	105235
#	117410
#	129493
#	141823
#	155163
#	168478
#	180665
#	195338
#	208593
#
# Disc length: 3085 seconds
#
# Revision: 3
# Processed by: cddbd v1.4b42PL0 Copyright (c) Steve Scherf et al.
# Submitted via: audiograbber 1.80
#
DISCID=f90c0b12
DTITLE=Various Artist - Texas Music Volume 2: Western Swing and Honky Tonk
DYEAR=1900
DGENRE=
TTITLE0=Bob Wills and His Texas Playboys - Take Me Back To Tulsa
TTITLE1=Roy Newman and His Boys - Everybody's Trying To Be My Baby
TTITLE2=Light Crust Doughboys - Knocky Knocky
TTITLE3=Milton Brown and His Brownies - Taking Off
TTITLE4=Cliff Bruner's Texas Wanderers - Milk Cow Blues
TTITLE5=Crystal Springs Ramblers - Fort Worth Stomp
TTITLE6=Blue Ridge Playboys - Gimme My Dime Back
TTITLE7=The Saddle Tramps - Hot As I Am
TTITLE8=Ernest Tubb - Kansas City Blues
TTITLE9=Ted Daffan's Texans - Born To Lose
TTITLE10=Al Dexter and His Troopers - Wine, Women And Song
TTITLE11=Floyd Tillman - Slippin' Around
TTITLE12=Harry Choates and His Fiddle - Harry's Blues
TTITLE13=Lefty Frizzell - If You've Got The Money I've Got The Time
TTITLE14=Hank Thompson and His Brazos Valley Boys - The Wild Side Of Life
TTITLE15=Johnny Gimble - Bosque Bandit
TTITLE16=Alvin Crow and The Pleasant Valley Boys - Nyquil Blues
TTITLE17=Asleep At The Wheel - Roll'Em Floyd (Interpolating "Rebecca" "Roll'Em 
TTITLE17=Pete")
EXTD=
EXTT0=
EXTT1=
EXTT2=
EXTT3=
EXTT4=
EXTT5=
EXTT6=
EXTT7=
EXTT8=
EXTT9=
EXTT10=
EXTT11=
EXTT12=
EXTT13=
EXTT14=
EXTT15=
EXTT16=
EXTT17=
PLAYORDER=
